inDegrees=yes
name=ik_tiny_file
DataType=double
version=3
OpenSimVersion=4.4-2022-07-23-0e9fedc
endheader
time	pelvis_tilt	pelvis_list	pelvis_rotation	pelvis_tx	pelvis_ty	pelvis_tz	hip_flexion_r	hip_adduction_r	hip_rotation_r	knee_angle_r	knee_angle_r_beta	ankle_angle_r	subtalar_angle_r	mtp_angle_r	hip_flexion_l	hip_adduction_l	hip_rotation_l	knee_angle_l	knee_angle_l_beta	ankle_angle_l	subtalar_angle_l	mtp_angle_l	lumbar_extension	lumbar_bending	lumbar_rotation	arm_flex_r	arm_add_r	arm_rot_r	elbow_flex_r	pro_sup_r	wrist_flex_r	wrist_dev_r	arm_flex_l	arm_add_l	arm_rot_l	elbow_flex_l	pro_sup_l	wrist_flex_l	wrist_dev_l
0	-12.53071932179674	-20.6048617076589	-11.47485664643111	0	0.9399999999999999	0	42.20540301253273	-10.61655739748996	0	58.96426919044023	1.029120638405433	-4.985941709026538	0	0	42.20540301253273	-10.61655739748996	0	58.96426919044023	1.029120638405433	-4.985941709026538	0	0	14.6390143765104	3.041876049338852	-5.216980291415648	-46.44202526714923	49.57889562299862	69.58290503954785	0.01777202231074652	46.86315074391259	0	5.074075786688134	-7.656960180082694	-18.76745043055003	-12.68443094302098	0.543069666416475	46.86315074391259	0	5.074075786688134
0.02	-12.51369889791999	-20.61168274668362	-11.4652317394119	0	0.9399999999999999	0	42.20575877460554	-10.61628521873699	0	58.96437314665364	1.029122452783635	-4.985944182106028	0	0	42.20575877460554	-10.61628521873699	0	58.96437314665364	1.029122452783635	-4.985944182106028	0	0	14.62943519574709	3.064278271820313	-5.228219370740467	-46.44225500548245	49.6023920992946	69.59826214539514	0.01780519457955111	46.86249848466256	0	5.074017964793909	-7.670949287727781	-18.78744731000166	-12.70155354863402	0.4996024527213052	46.86249848466256	0	5.074017964793909
0.04	-12.48653304013705	-20.61586631393698	-11.46227227481551	0	0.9399999999999999	0	42.20613106523853	-10.61600038853323	0	58.96448190603093	1.029124350992861	-4.985946770195519	0	0	42.20613106523853	-10.61600038853323	0	58.96448190603093	1.029124350992861	-4.985946770195519	0	0	14.62234627086196	3.08030153215932	-5.230287878250087	-46.45318275871232	49.62427006153491	69.61634737475454	0.01782204411357188	46.86181588500851	0	5.073957467645971	-7.695174210581098	-18.82066390466314	-12.71282278921594	0.4574889951240156	46.86181588500851	0	5.073957467645971
0.06	-12.46183510033018	-20.61945204985664	-11.46108258572291	0	0.9399999999999999	0	42.20652114526868	-10.61570168007174	0	58.96459574993159	1.029126337943761	-4.985949482734168	0	0	42.20652114526868	-10.61570168007174	0	58.96459574993159	1.029126337943761	-4.985949482734168	0	0	14.61578531296492	3.092961927084762	-5.228160244078251	-46.47349832825558	49.64888426888821	69.6421037557901	0.01782716092257323	46.86110010777412	0	5.073894015420299	-7.722014252526096	-18.86059503309349	-12.71540280891887	0.4278339288194927	46.86110010777412	0	5.073894015420299
0.08	-12.43332548451025	-20.6202777117512	-11.46260814896525	0	0.9399999999999999	0	42.20691258610546	-10.61540167651022	0	58.96470988057624	1.029128329899288	-4.985952205491008	0	0	42.20691258610546	-10.61540167651022	0	58.96470988057624	1.029128329899288	-4.985952205491008	0	0	14.60945710887098	3.097997054572485	-5.221702422014398	-46.49839820911269	49.67586026341844	69.66786378239452	0.01784152727660923	46.86038129998927	0	5.073830283230046	-7.753688783813675	-18.89964562624604	-12.72476600347621	0.395250277372232	46.86038129998927	0	5.073830283230046
0.1	-12.40542214872617	-20.62062545992769	-11.46291269570585	0	0.9399999999999999	0	42.20730189307849	-10.61510330441223	0	58.96482335785763	1.029130310451474	-4.985954913533658	0	0	42.20730189307849	-10.61510330441223	0	58.96482335785763	1.029130310451474	-4.985954913533658	0	0	14.60361895654165	3.101897462791792	-5.21796629173514	-46.52449749709641	49.70032124023988	69.69471872051166	0.01785424672721052	46.85966637285004	0	5.073766912926372	-7.784424045329073	-18.93972141868002	-12.73411048625135	0.3675886176202188	46.85966637285004	0	5.073766912926372
0.12	-12.37869125752037	-20.61967989877778	-11.46387440962421	0	0.9399999999999999	0	42.20768660405025	-10.61480836467979	0	58.96493543736194	1.029132266607848	-4.98595758994979	0	0	42.20768660405025	-10.61480836467979	0	58.96493543736194	1.029132266607848	-4.98595758994979	0	0	14.59668248762665	3.103633793375248	-5.212739773461131	-46.5521350150859	49.72874056850658	69.72544431679908	0.01787227157393416	46.85895967705193	0	5.073704279691474	-7.816624912345611	-18.97764605768436	-12.74490546907045	0.3431157197732166	46.85895967705193	0	5.073704279691474
0.14	-12.35933281463286	-20.62141227507753	-11.46321929187327	0	0.9399999999999999	0	42.20806491387677	-10.61451837113385	0	58.96504563515048	1.029134189922087	-4.985960221851658	0	0	42.20806491387677	-10.61451837113385	0	58.96504563515048	1.029134189922087	-4.985960221851658	0	0	14.59628628720715	3.105319440002825	-5.212367619559369	-46.57775956179091	49.75314268215261	69.75477178325421	0.01788786330705202	46.85826478775467	0	5.073642715123645	-7.847829080430632	-19.01765758171938	-12.75518656407044	0.3207702383969367	46.85826478775467	0	5.073642715123645
0.16	-12.33565670928659	-20.62199603287618	-11.46445984635021	0	0.9399999999999999	0	42.20843595781107	-10.61423399710168	0	58.96515370446308	1.029136076087412	-4.985962803189616	0	0	42.20843595781107	-10.61423399710168	0	58.96515370446308	1.029136076087412	-4.985962803189616	0	0	14.59170683673025	3.108191542867928	-5.208732874686773	-46.60432598193778	49.77906442003761	69.78496592717208	0.01790651366958846	46.85758331597956	0	5.073582362076212	-7.880911327628815	-19.05619585777868	-12.76572227187428	0.3007815094283264	46.85758331597956	0	5.073582362076212
0.18	-12.31557625528851	-20.62148432662308	-11.46546326398249	0	0.9399999999999999	0	42.20879883072622	-10.61395594235267	0	58.96525938487013	1.02913792055847	-4.985965327646629	0	0	42.20879883072622	-10.61395594235267	0	58.96525938487013	1.02913792055847	-4.985965327646629	0	0	14.59074347490386	3.106920710823245	-5.207578474152728	-46.62907320483415	49.79965285114296	69.81180439079209	0.01791866352044033	46.85691693744837	0	5.07352336885451	-7.913183816732858	-19.09571423288886	-12.77670837850052	0.2835049933799388	46.85691693744837	0	5.07352336885451
0.2	-12.29008644585702	-20.61838985125377	-11.46676822644461	0	0.9399999999999999	0	42.20915562851458	-10.61368258714444	0	58.96536328453982	1.029139733949798	-4.985967809829395	0	0	42.20915562851458	-10.61368258714444	0	58.96536328453982	1.029139733949798	-4.985967809829395	0	0	14.58513071279808	3.107499247584221	-5.202994122666087	-46.65524711957156	49.82259305419924	69.84037038255178	0.01793693397523278	46.85626177807767	0	5.0734653896052	-7.946300308213998	-19.13058342905531	-12.78629505395937	0.2678535272021811	46.85626177807767	0	5.0734653896052
0.22	-12.27398877967888	-20.6186474607465	-11.46603682158113	0	0.9399999999999999	0	42.20950712480232	-10.61341334828783	0	58.9654656326671	1.029141520261602	-4.985970255092552	0	0	42.20950712480232	-10.61341334828783	0	58.9654656326671	1.029141520261602	-4.985970255092552	0	0	14.58587462774916	3.107102675466851	-5.203114342363431	-46.67851403386033	49.8430189188844	69.86752278212276	0.01795027765936247	46.85561643714119	0	5.073408300911582	-7.97701716434254	-19.16838257623614	-12.79474286046712	0.2538091800866365	46.85561643714119	0	5.073408300911582
